#!OML:ASF H:\charlestonDancing\Project 1\Capture day 1\Session 1\femaleDancer.ASF
:FULLY-SPECIFIED
:DEGREES
174
root 1.54764 18.3543 -1.62615 -0.0730355 -71.9684 13.4919
lowerback 18.6708 1.04989 7.41205
upperback 5.00996 2.60697 1.97631
thorax -4.77504 1.12465 -2.65537
lowerneck 5.41502 -4.47347 0.595379
upperneck -3.81305 -5.97501 -0.84011
head -2.16861 -2.965 -0.154874
rclavicle -4.53229e-014 1.59028e-014
rhumerus -26.0773 -4.49466 -69.1296
rradius 56.9104
rwrist 18.8661
rhand -37.5069 -43.3651
rfingers 7.12502
rthumb -10.5637 -73.0796
lclavicle -4.53229e-014 1.59028e-014
lhumerus -35.4801 24.3606 30.1667
lradius 144.717
lwrist 1.77727
lhand -9.42151 -1.00781
lfingers 7.12502
lthumb 16.5407 28.3072
rfemur -34.305 -9.43004 19.1039
rtibia 33.7992
rfoot -6.23325 -3.76016
rtoes -23.0263
lfemur -19.3676 -7.94003 -25.2733
ltibia 31.6102
lfoot -5.9187 -22.7566
ltoes -22.9111
175
root 1.67334 18.2912 -1.58637 0.378885 -73.7311 12.9563
lowerback 18.8669 1.31766 7.05363
upperback 5.09996 2.88179 1.80303
thorax -4.7658 1.25938 -2.7028
lowerneck 5.37968 -4.45163 0.244921
upperneck -3.60397 -5.95875 -0.634828
head -2.07408 -2.95808 -0.037124
rclavicle -4.29375e-014 -1.90833e-014
rhumerus -26.176 -4.02479 -71.0175
rradius 55.4232
rwrist 18.5689
rhand -37.5943 -43.729
rfingers 7.12502
rthumb -10.648 -73.4392
lclavicle -4.29375e-014 -1.90833e-014
lhumerus -34.6627 24.2371 28.99
lradius 145.516
lwrist 2.13007
lhand -9.54706 1.68604
lfingers 7.12502
lthumb 16.4198 31.0111
rfemur -35.7381 -10.3402 20.0711
rtibia 35.2737
rfoot -6.22985 -1.26088
rtoes -27.7637
lfemur -20.1855 -7.97457 -25.1496
ltibia 31.4714
lfoot -1.83741 -21.0316
ltoes -17.5464
176
root 1.80628 18.1926 -1.54974 1.22498 -76.0323 11.9883
lowerback 19.2249 1.70046 6.4823
upperback 5.14938 3.28088 1.68259
thorax -4.89245 1.44842 -2.60975
lowerneck 5.15484 -4.34622 -0.121198
upperneck -3.31147 -5.83933 -0.583003
head -1.92352 -2.89715 0.0252411
rclavicle -2.54444e-014 -4.29375e-014
rhumerus -26.3003 -3.41423 -72.7968
rradius 54.0972
rwrist 18.2985
rhand -37.9073 -43.8251
rfingers 7.12502
rthumb -10.9499 -73.5196
lclavicle -2.54444e-014 -4.29375e-014
lhumerus -34.3596 24.3861 26.8684
lradius 146.339
lwrist 2.65821
lhand -10.095 4.33155
lfingers 7.12502
lthumb 15.8922 33.6994
rfemur -37.6295 -10.6508 21.1296
rtibia 37.1294
rfoot -6.38848 1.10679
rtoes -24.6763
lfemur -20.9924 -7.48338 -24.893
ltibia 32.0637
lfoot -0.857786 -18.6903
ltoes -4.98136
177
root 1.9464 18.0665 -1.51519 3.54563 -78.4387 9.44322
lowerback 19.6872 2.07086 6.02613
upperback 5.15434 3.69466 1.64949
thorax -5.12334 1.6382 -2.50087
lowerneck 4.88741 -4.21297 -0.417833
upperneck -2.95252 -5.68389 -0.720398
head -1.75379 -2.81597 0.014432
rclavicle -1.04163e-013 -7.95139e-015
rhumerus -26.6948 -2.81462 -74.3771
rradius 53.1718
rwrist 18.1351
rhand -38.1363 -43.5735
rfingers 7.12502
rthumb -11.1707 -73.2561
lclavicle -1.04163e-013 -7.95139e-015
lhumerus -34.3382 24.7535 23.8368
lradius 147.1
lwrist 3.49648
lhand -10.509 6.94438
lfingers 7.12502
lthumb 15.4935 36.3436
rfemur -39.6204 -10.4438 22.3538
rtibia 39.2235
rfoot -6.46092 3.20015
rtoes -22.569
lfemur -21.6756 -6.80369 -24.3649
ltibia 33.3011
lfoot -2.86736 -18.834
ltoes -3.85171
178
root 2.09158 17.9279 -1.47862 7.95093 -80.7594 4.72174
lowerback 20.2412 2.40041 5.79294
upperback 5.11287 4.10361 1.62093
thorax -5.44041 1.82 -2.52231
lowerneck 4.78923 -4.07306 -0.797027
upperneck -2.7679 -5.51769 -0.676169
head -1.66381 -2.73167 0.0805623
rclavicle -8.74653e-015 2.38542e-014
rhumerus -27.4468 -2.40313 -75.7771
rradius 52.678
rwrist 18.2124
rhand -38.3378 -43.1458
rfingers 7.12502
rthumb -11.3651 -72.8178
lclavicle -8.74653e-015 2.38542e-014
lhumerus -34.3921 25.3539 20.0063
lradius 147.711
lwrist 4.96621
lhand -10.408 9.31519
lfingers 7.12502
lthumb 15.5908 38.7068
rfemur -41.2477 -9.64733 23.4603
rtibia 41.271
rfoot -6.96002 4.77134
rtoes -22.0522
lfemur -22.5112 -6.09233 -23.7347
ltibia 35.1652
lfoot -5.53941 -18.8525
ltoes -2.81658
179
root 2.24112 17.7989 -1.4146 12.8329 -81.9552 -0.834194
lowerback 21.0844 2.23151 6.3116
upperback 5.10194 4.0245 1.46068
thorax -5.84638 1.75269 -3.01057
lowerneck 4.76972 -3.96468 -1.06712
upperneck -2.70663 -5.38492 -0.562984
head -1.62972 -2.66559 0.15493
rclavicle -4.92986e-014 -7.95139e-015
rhumerus -28.5585 -2.26243 -77.0397
rradius 52.5901
rwrist 18.5749
rhand -38.1843 -43.0255
rfingers 7.12502
rthumb -11.217 -72.7056
lclavicle -4.92986e-014 -7.95139e-015
lhumerus -34.3129 26.002 15.9414
lradius 148.131
lwrist 6.74693
lhand -10.0861 11.6303
lfingers 7.12502
lthumb 15.9008 40.9975
rfemur -42.2445 -9.27449 23.9083
rtibia 43.4634
rfoot -8.33463 6.59311
rtoes -20.1238
lfemur -23.2646 -6.11442 -23.4071
ltibia 37.3507
lfoot -8.07208 -18.3156
ltoes 0.733579
